<?xml version="1.0" encoding="utf-8"?>
<!-- Generator: Adobe Illustrator 27.5.0, SVG Export Plug-In . SVG Version: 6.00 Build 0)  -->
<svg version="1.1" xmlns="http://www.w3.org/2000/svg" xmlns:xlink="http://www.w3.org/1999/xlink" x="0px" y="0px"
	 viewBox="0 0 750 500" style="enable-background:new 0 0 750 500;" xml:space="preserve">
<g id="BACKGROUND">
</g>
<g id="OBJECTS">
	<g>
		<g>
			<g>
				<g>
					<g>
						<g>
							<rect style="fill:#C0C9D6;" width="750" height="500"/>
							<g>
								<rect x="372.711" y="441.371" style="fill:#FFFFFF;" width="12.683" height="0.5"/>
								<rect x="280.09" y="441.371" style="fill:#FFFFFF;" width="79.309" height="0.5"/>
								<rect x="250.537" y="441.371" style="fill:#FFFFFF;" width="15.83" height="0.5"/>
								<rect x="115.984" y="441.371" style="fill:#FFFFFF;" width="126.128" height="0.5"/>
								<rect x="90.197" y="441.371" style="fill:#FFFFFF;" width="17.952" height="0.5"/>
								<rect x="626.111" y="458.223" style="fill:#FFFFFF;" width="16.085" height="0.5"/>
								<rect x="605.174" y="458.223" style="fill:#FFFFFF;" width="5.617" height="0.5"/>
								<rect x="510.196" y="458.223" style="fill:#FFFFFF;" width="86.043" height="0.5"/>
								<rect x="480.835" y="458.223" style="fill:#FFFFFF;" width="17.107" height="0.5"/>
								<rect x="344.617" y="458.223" style="fill:#FFFFFF;" width="80.048" height="0.5"/>
								<rect x="315.14" y="458.223" style="fill:#FFFFFF;" width="20.162" height="0.5"/>
							</g>
						</g>
						<g>
							<rect x="502.748" y="83.164" style="fill:#FFFFFF;" width="166.281" height="336.755"/>
							<polygon style="fill:#05060C;" points="681.245,419.919 680.745,419.919 680.745,71.83 491.033,71.83 491.033,419.919 
								490.533,419.919 490.533,71.33 681.245,71.33 							"/>
							<rect x="525.879" y="108.035" style="fill:#E8E6DC;" width="120.019" height="273.913"/>
							<rect x="668.779" y="107.77" style="fill:#05060C;" width="0.5" height="19.296"/>
							<rect x="668.779" y="362.386" style="fill:#05060C;" width="0.5" height="19.297"/>
							<path style="fill:#E8E6DC;" d="M514.318,246.012L514.318,246.012c-2.284,0-4.152-1.868-4.152-4.152v-25
								c0-2.284,1.868-4.152,4.152-4.152l0,0c2.284,0,4.152,1.868,4.152,4.152v25C518.47,244.144,516.602,246.012,514.318,246.012z"
								/>
							<path style="fill:#343B54;" d="M514.318,242.615L514.318,242.615c-0.703,0-1.279-0.575-1.279-1.279v-3.431
								c0-0.703,0.576-1.279,1.279-1.279l0,0c0.703,0,1.279,0.576,1.279,1.279v3.431
								C515.597,242.039,515.021,242.615,514.318,242.615z"/>
							<path style="fill:#343B54;" d="M536.404,220.553h-21.726c-1.347,0-2.45-1.102-2.45-2.45v-0.34c0-1.347,1.103-2.45,2.45-2.45
								l21.726,1.216C537.752,216.529,537.752,220.553,536.404,220.553z"/>
							<g>
								<rect x="543.378" y="156.152" style="fill:#05060C;" width="85.021" height="0.5"/>
								<rect x="543.378" y="213.627" style="fill:#05060C;" width="85.021" height="0.5"/>
								<rect x="543.378" y="271.103" style="fill:#05060C;" width="85.021" height="0.5"/>
								<rect x="543.378" y="328.577" style="fill:#05060C;" width="85.021" height="0.5"/>
							</g>
						</g>
					</g>
					<g>
						<g>
							<path style="fill:#829CBF;" d="M152.536,41.867c1.867,3.351,5.442,5.621,9.55,5.621s7.684-2.27,9.55-5.621H152.536z"/>
							<path style="fill:#343B54;" d="M162.214,37.893L162.214,37.893c-2.166,0-3.939-1.772-3.939-3.939V25.68
								c0-2.166,1.773-3.939,3.939-3.939l0,0c2.166,0,3.939,1.772,3.939,3.939v8.274C166.153,36.12,164.38,37.893,162.214,37.893z"
								/>
							<path style="fill:#FFFFFF;" d="M218.003,44.678c-16.38-9.597-35.434-15.123-55.79-15.123
								c-20.355,0-39.41,5.526-55.789,15.123H218.003z"/>
							<rect x="161.964" style="fill:#05060C;" width="0.5" height="22.516"/>
						</g>
						<g>
							<path style="fill:#829CBF;" d="M443.298,41.867c1.867,3.351,5.442,5.621,9.55,5.621c4.109,0,7.684-2.27,9.55-5.621H443.298z"
								/>
							<path style="fill:#343B54;" d="M452.976,37.893L452.976,37.893c-2.166,0-3.939-1.772-3.939-3.939V25.68
								c0-2.166,1.772-3.939,3.939-3.939l0,0c2.166,0,3.939,1.772,3.939,3.939v8.274C456.915,36.12,455.143,37.893,452.976,37.893z"
								/>
							<path style="fill:#FFFFFF;" d="M508.766,44.678c-16.38-9.597-35.434-15.123-55.79-15.123
								c-20.355,0-39.41,5.526-55.789,15.123H508.766z"/>
							<rect x="452.726" style="fill:#05060C;" width="0.5" height="22.516"/>
						</g>
					</g>
				</g>
				<g>
					<g>
						<g>
							<path style="fill:#FFFFFF;" d="M414.854,342.795h-58.92v-18.058h58.92V342.795z M356.434,342.295h57.92v-17.058h-57.92
								V342.295z"/>
							<g>
								<path style="fill:#FFFFFF;" d="M337.977,419.948l-0.496-0.059l7.963-67.702c0.481-2.868,2.556-3.272,4.733-3.272
									c0.014,0,0.027,0,0.041,0l-0.002,0.5c-0.011,0-0.021,0-0.033,0c-2.745,0-3.896,0.772-4.245,2.843L337.977,419.948z"/>
								<path style="fill:#FFFFFF;" d="M432.811,419.948l-7.962-67.702c-0.347-2.059-1.498-2.831-4.243-2.831
									c-0.012,0-0.022,0-0.033,0l-0.002-0.5c0.014,0,0.027,0,0.041,0c2.179,0,4.252,0.404,4.731,3.261l7.964,67.714
									L432.811,419.948z"/>
							</g>
							<path style="fill:#829CBF;" d="M344.493,342.544c0.233,4.078,3.535,6.642,5.671,6.642c2.136,0,68.324,0,70.461,0
								c2.136,0,5.438-2.564,5.671-6.642C426.529,338.466,344.26,338.466,344.493,342.544z"/>
							<path style="fill:#829CBF;" d="M421.401,325.881l-8.623-58.031c-1.107-6.875-4.195-10.138-11.769-10.138h-15.498h-0.233
								H369.78c-7.574,0-10.662,3.263-11.769,10.138l-8.623,58.031c-0.544,5.865,2.098,9.089,7.807,9.089h28.083h0.233h28.083
								C419.304,334.97,421.945,331.746,421.401,325.881z"/>
							<path style="fill:#FFFFFF;" d="M408.437,269.163c-0.973-5.391-3.71-7.491-9.763-7.491h-26.56
								c-6.054,0-8.791,2.101-9.764,7.491l-0.492-0.088c1.013-5.613,3.983-7.903,10.256-7.903h26.56
								c6.271,0,9.242,2.29,10.255,7.903L408.437,269.163z"/>
						</g>
						<g>
							<path style="fill:#FFFFFF;" d="M282.75,342.795h-58.919v-18.058h58.919V342.795z M224.331,342.295h57.919v-17.058h-57.919
								V342.295z"/>
							<g>
								<path style="fill:#FFFFFF;" d="M205.873,419.948l-0.496-0.059l7.963-67.702c0.481-2.868,2.556-3.272,4.733-3.272
									c0.014,0,0.027,0,0.041,0l-0.002,0.5c-0.011,0-0.021,0-0.033,0c-2.745,0-3.896,0.772-4.245,2.843L205.873,419.948z"/>
								<path style="fill:#FFFFFF;" d="M300.708,419.948l-7.963-67.702c-0.347-2.059-1.498-2.831-4.243-2.831
									c-0.012,0-0.022,0-0.033,0l-0.002-0.5c0.014,0,0.027,0,0.041,0c2.179,0,4.252,0.404,4.731,3.261l7.965,67.714
									L300.708,419.948z"/>
							</g>
							<path style="fill:#829CBF;" d="M212.389,342.544c0.233,4.078,3.535,6.642,5.671,6.642s68.324,0,70.461,0
								c2.136,0,5.438-2.564,5.671-6.642C294.425,338.466,212.156,338.466,212.389,342.544z"/>
							<path style="fill:#829CBF;" d="M289.297,325.881l-8.623-58.031c-1.107-6.875-4.195-10.138-11.769-10.138h-15.498h-0.233
								h-15.498c-7.574,0-10.662,3.263-11.769,10.138l-8.623,58.031c-0.544,5.865,2.097,9.089,7.807,9.089h28.083h0.233h28.083
								C287.2,334.97,289.841,331.746,289.297,325.881z"/>
							<path style="fill:#FFFFFF;" d="M230.247,269.163l-0.492-0.088c1.014-5.613,3.984-7.903,10.256-7.903h26.56
								c6.272,0,9.243,2.29,10.256,7.903l-0.492,0.088c-0.973-5.391-3.71-7.491-9.764-7.491h-26.56
								C233.958,261.672,231.22,263.772,230.247,269.163z"/>
						</g>
					</g>
					<g>
						<path style="fill:#343B54;" d="M402.156,325.813v-27.751c0-1.452-1.188-2.64-2.64-2.64h-53.609c-1.452,0-2.64,1.188-2.64,2.64
							v27.751H402.156z"/>
						<path style="fill:#343B54;" d="M344.617,325.813v9.972c0,2.503,1.954,4.552,4.343,4.552h47.503
							c2.389,0,4.343-2.048,4.343-4.552v-9.972H344.617z"/>
						<rect x="344.617" y="325.563" style="fill:#05060C;" width="56.188" height="0.5"/>
						<polygon style="fill:#05060C;" points="382.318,295.253 379.931,295.253 377.723,292.044 367.716,292.044 365.509,295.253 
							363.123,295.253 363.123,294.753 365.246,294.753 367.453,291.544 377.987,291.544 380.195,294.753 382.318,294.753 						"/>
						<g>
							<path style="fill:#C0C9D6;" d="M358.542,329.815h-2.111c-0.471,0-0.856-0.385-0.856-0.857v-4.203
								c0-0.471,0.385-0.857,0.856-0.857h2.111c0.471,0,0.857,0.385,0.857,0.857v4.203
								C359.399,329.429,359.013,329.815,358.542,329.815z"/>
							<rect x="354.793" y="327.647" style="fill:#05060C;" width="5.234" height="0.5"/>
						</g>
						<g>
							<path style="fill:#C0C9D6;" d="M389.143,329.815h-2.111c-0.471,0-0.857-0.385-0.857-0.857v-4.203
								c0-0.471,0.385-0.857,0.857-0.857h2.111c0.471,0,0.857,0.385,0.857,0.857v4.203C390,329.429,389.614,329.815,389.143,329.815
								z"/>
							<rect x="385.394" y="327.647" style="fill:#05060C;" width="5.234" height="0.5"/>
						</g>
					</g>
				</g>
			</g>
			<g>
				<g>
					<path style="fill:#FFFFFF;" d="M106.934,334.809c-2.693-23.14,3.696-47.003,19.532-72.955l0.428,0.26
						c-15.776,25.853-22.143,49.613-19.464,72.637L106.934,334.809z"/>
					<path style="fill:#FFFFFF;" d="M108.421,344.457c-1.324-9.756-3.139-19.893-9.378-27.216l0.381-0.324
						c5.036,5.91,7.225,13.591,8.58,21.436c-0.129-6.443,1.137-11.987,6.903-15.882l0.279,0.414
						c-7.288,4.922-7.151,12.655-6.268,21.514L108.421,344.457z"/>
					<path style="fill:#FFFFFF;" d="M107.538,346.485c-1.969-7.828-4.686-16.219-9.918-19.086c-2.378-1.302-5.092-1.416-8.299-0.346
						l-0.158-0.475c3.302-1.101,6.228-0.971,8.697,0.382c5.4,2.96,8.168,11.47,10.162,19.403L107.538,346.485z"/>
					<path style="fill:#789B64;" d="M107.182,314.183c-4.572-8.349-7.521-18.014-7.47-27.184c8.527-0.056,8.527-0.056,8.527-0.056
						s0,0-8.149-5.206c0.563-3.963,1.772-7.758,3.748-11.226c8.015,2.868,8.015,2.868,8.015,2.868s0,0-4.88-7.324
						c2.303-2.692,5.21-5.091,8.795-7.098c4.757,4.082,4.757,4.082,4.757,4.082s0,0-0.501-6.141
						c2.341-0.973,4.912-1.805,7.728-2.479c5.271,5.73,7.463,10.732,8.464,20.488c-6.24,1.64-6.24,1.64-6.24,1.64l6.241,0.528
						c0,0-3.04,12.234-7.172,16.927c-6.24-2.613-6.24-2.613-6.24-2.613s0,0,4.133,5.674c-2.45,3.061-6.387,7.131-9.275,9.67
						c-4.67-3.35-4.67-3.35-4.67-3.35s0,0,2.39,5.226C112.811,310.606,109.704,312.738,107.182,314.183z"/>
					<path style="fill:#789B64;" d="M86.163,327.793c-13.791,4.725-26.508,10.982-37.942,19.071c2.59,3.109,5.957,5.403,9.655,6.68
						c3.885-6.155,3.885-6.155,3.885-6.155s0,0-0.336,7.048c2.623,0.423,5.336,0.348,7.999-0.289
						c0.783-6.609,0.783-6.609,0.783-6.609s0,0,2.98,5.307c2.619-1.203,6.027-3.817,8.264-6.302
						c-3.022-4.061-3.022-4.061-3.022-4.061s0,0,4.58,1.921c0.671-1.039,2.384-4.711,2.384-4.711l-1.783-1.865l2.684,0.119
						c0,0,2.046-4.123,2.947-11.131L86.163,327.793z"/>
					<path style="fill:#789B64;" d="M95.968,314.481c-15.007-11.384-30.883-20.514-47.799-26.946
						c-1.467,5.019-1.501,10.282-0.206,15.169c9.401-0.269,9.401-0.269,9.401-0.269s0,0-7.801,4.72
						c1.437,3.118,3.473,5.973,6.076,8.371c7.652-3.923,7.652-3.923,7.652-3.923s0,0-3.544,7.021
						c3.178,1.942,8.438,3.713,12.715,4.321c2.177-6.168,2.177-6.168,2.177-6.168s0,0,1.241,6.296
						c1.599-0.029,6.771-0.839,6.771-0.839l0.714-3.256l1.807,2.964c0,0,5.897-0.778,14.062-4.862L95.968,314.481z"/>
					<path style="fill:#789B64;" d="M117.696,320.572c12.17-9.232,25.044-16.635,38.762-21.851c1.189,4.07,1.217,8.338,0.167,12.301
						c-7.623-0.218-7.623-0.218-7.623-0.218s0,0,6.326,3.827c-1.165,2.529-2.816,4.844-4.927,6.788
						c-6.206-3.181-6.206-3.181-6.206-3.181s0,0,2.874,5.693c-2.577,1.575-6.842,3.011-10.311,3.504
						c-1.765-5.002-1.765-5.002-1.765-5.002s0,0-1.006,5.106c-1.296-0.024-5.491-0.681-5.491-0.681l-0.579-2.641l-1.465,2.404
						c0,0-4.782-0.631-11.403-3.943L117.696,320.572z"/>
				</g>
				<g>
					<polygon style="fill:#829CBF;" points="115.632,335.641 107.182,335.641 98.732,335.641 86.058,405.958 91.839,419.414 
						107.182,419.414 122.525,419.414 128.306,405.958 					"/>
					<rect x="86.058" y="405.708" style="fill:#FFFFFF;" width="42.248" height="0.5"/>
					<rect x="94.121" y="361.434" style="fill:#FFFFFF;" width="26.205" height="0.5"/>
					<rect x="96.99" y="332.416" style="fill:#829CBF;" width="20.384" height="4.725"/>
					<rect x="98.462" y="336.892" style="fill:#05060C;" width="17.44" height="0.5"/>
					<polygon style="fill:#FFFFFF;" points="102.195,368.605 97.755,364.022 93.026,368.432 92.684,368.066 97.773,363.321 
						102.201,367.893 106.778,363.325 111.721,367.913 117.023,363.331 121.804,368.071 121.453,368.427 116.999,364.013 
						111.71,368.585 106.79,364.019 					"/>
				</g>
			</g>
		</g>
		<g>
			<g>
				<g>
					<g>
						<path style="fill:#89627A;" d="M448.457,268.753l-21.685-28.136c-0.391-0.508-0.297-1.236,0.211-1.627l40.345-31.095
							c0.507-0.391,1.236-0.297,1.627,0.211l21.685,28.136c0.391,0.508,0.297,1.236-0.211,1.627l-40.345,31.095
							C449.576,269.355,448.848,269.261,448.457,268.753z"/>
						
							<rect x="442.312" y="216.088" transform="matrix(0.6105 0.7921 -0.7921 0.6105 367.5343 -270.4393)" style="fill:#FFFFFF;" width="32.787" height="44.683"/>
						<g>
							<g>
								
									<rect x="456.504" y="218.498" transform="matrix(0.6105 0.7921 -0.7921 0.6105 358.178 -277.308)" style="fill:#E8E6DC;" width="9.012" height="13.969"/>
							</g>
							<g>
								
									<rect x="470.516" y="240.205" transform="matrix(0.792 -0.6105 0.6105 0.792 -50.2739 337.8685)" style="fill:#D08F7E;" width="0.501" height="5.037"/>
								
									<rect x="465.434" y="232.363" transform="matrix(0.792 -0.6105 0.6105 0.792 -47.3047 333.3993)" style="fill:#D08F7E;" width="0.501" height="7.533"/>
								
									<rect x="463.897" y="240.085" transform="matrix(0.792 -0.6105 0.6105 0.792 -52.8637 334.2351)" style="fill:#D08F7E;" width="0.501" height="9.248"/>
								
									<rect x="457.129" y="230.748" transform="matrix(0.7921 -0.6105 0.6105 0.7921 -48.9123 328.2676)" style="fill:#D08F7E;" width="0.501" height="10.36"/>
								
									<rect x="451.762" y="227.06" transform="matrix(0.7921 -0.6104 0.6104 0.7921 -45.7798 323.5297)" style="fill:#D08F7E;" width="0.501" height="3.809"/>
								
									<rect x="461.677" y="249.068" transform="matrix(0.7919 -0.6106 0.6106 0.7919 -56.8309 334.1806)" style="fill:#D08F7E;" width="0.5" height="2.82"/>
								
									<rect x="457.308" y="241.121" transform="matrix(0.792 -0.6105 0.6105 0.792 -54.2894 330.2704)" style="fill:#D08F7E;" width="0.501" height="7.377"/>
								
									<rect x="450.223" y="229.383" transform="matrix(0.7921 -0.6105 0.6105 0.7921 -50.1584 323.9896)" style="fill:#D08F7E;" width="0.501" height="12.468"/>
							</g>
							
								<rect x="441.518" y="237.036" transform="matrix(0.792 -0.6105 0.6105 0.792 -58.8333 321.0243)" style="fill:#05060C;" width="0.5" height="19.659"/>
							
								<rect x="445.452" y="235.06" transform="matrix(0.792 -0.6105 0.6105 0.792 -58.9832 323.7621)" style="fill:#05060C;" width="0.5" height="26.785"/>
							
								<rect x="474.43" y="226.156" transform="matrix(0.792 -0.6105 0.6105 0.792 -43.3344 338.1688)" style="fill:#343B54;" width="0.501" height="13.065"/>
							
								<rect x="470.437" y="228.507" transform="matrix(0.792 -0.6105 0.6105 0.792 -43.907 335.6669)" style="fill:#343B54;" width="0.501" height="7.532"/>
						</g>
						<path style="fill:#E8E6DC;" d="M479.631,231.846l-9.307-12.076c-0.185-0.24-0.14-0.587,0.1-0.772l2.05-1.58
							c0.24-0.185,0.587-0.14,0.772,0.1l9.307,12.076c0.185,0.24,0.14,0.587-0.1,0.772l-2.05,1.58
							C480.163,232.131,479.815,232.086,479.631,231.846z"/>
					</g>
					<g>
						<g>
							<path style="fill:#FFFFFF;" d="M418.193,209.695c-0.334,5.758,4.079,10.715,9.838,11.049
								c3.978,0.231,7.684-1.781,9.675-5.249l0.086-0.15c0.25-0.458,0.437-0.855,0.592-1.253l17.237-35.841
								c0.904-1.644,1.417-3.413,1.524-5.256c0.397-6.842-4.846-12.731-11.688-13.128c-5.135-0.298-9.847,2.535-12.002,7.217
								l-0.041,0.09c-0.251,0.564-0.449,1.1-0.602,1.627l-13.692,37.105l0.014,0.008l-0.162,0.409
								C418.521,207.415,418.259,208.549,418.193,209.695z"/>
							<path style="fill:#FFFFFF;" d="M438.976,204.566l24.603,33.703l-10.256,9.201l-30.818-28.61
								C409.876,208.048,427.912,191.541,438.976,204.566z"/>
							<path style="fill:#05060C;" d="M439.065,212.801l-0.211-0.453c1.684-0.783,3.235-1.092,4.715-0.944
								c-0.88-0.891-1.931-1.537-3.134-1.925l0.154-0.476c1.514,0.488,2.802,1.361,3.828,2.594c0.067,0.082,0.076,0.197,0.022,0.288
								c-0.054,0.091-0.159,0.139-0.265,0.117C442.589,211.679,440.918,211.94,439.065,212.801z"/>
						</g>
						<path style="fill:#05060C;" d="M453.359,245.86c-0.215,0-0.422-0.074-0.59-0.212c-0.192-0.158-0.313-0.381-0.337-0.629
							c-0.024-0.248,0.049-0.49,0.207-0.683c0.158-0.192,0.382-0.312,0.63-0.336c0.244-0.023,0.49,0.049,0.683,0.207
							c0.192,0.158,0.313,0.382,0.337,0.63c0.024,0.248-0.049,0.49-0.207,0.683c-0.158,0.192-0.382,0.312-0.63,0.337l0,0
							C453.42,245.858,453.389,245.86,453.359,245.86z M453.362,244.495c-0.015,0-0.029,0.001-0.044,0.003
							c-0.115,0.011-0.219,0.066-0.292,0.156c-0.073,0.089-0.107,0.202-0.096,0.316c0.011,0.115,0.066,0.219,0.156,0.292
							c0.089,0.073,0.193,0.105,0.316,0.096l0,0c0.115-0.011,0.219-0.066,0.292-0.156c0.073-0.089,0.107-0.201,0.096-0.316
							c-0.011-0.115-0.066-0.219-0.156-0.292C453.557,244.529,453.461,244.495,453.362,244.495z"/>
						
							<rect x="447.942" y="239.02" transform="matrix(0.7061 -0.7081 0.7081 0.7061 -35.6166 392.7254)" style="fill:#05060C;" width="14.726" height="0.499"/>
					</g>
				</g>
				<g>
					<polygon style="fill:#FFFFFF;" points="432.059,401.409 431.151,408.961 445.534,408.961 446.796,401.409 					"/>
					<polygon style="fill:#FFFFFF;" points="389.665,386.792 383.685,395.421 394.715,402.656 400.53,394.077 					"/>
					<polyline style="fill:#343B54;" points="436.06,240.926 425.742,304.773 386.571,387.107 404.429,399.471 449.626,322.688 
						456.696,260.747 454.977,240.926 436.06,240.926 					"/>
					<path style="fill:#829CBF;" d="M474.466,240.926h-40.413c-0.078,4.286,0.322,10.422,3.278,14.058l1.595,55.126l-9.315,91.625
						h22.428C461.645,346.34,469.273,292.609,474.466,240.926z"/>
					<path style="fill:#05060C;" d="M456.725,254.21l-0.059-0.496c9.533-1.112,10.733-7.927,10.779-8.216l0.494,0.078
						C467.928,245.65,466.647,253.053,456.725,254.21z"/>
					<path style="fill:#343B54;" d="M430.466,407.535h15.969c0,0,0.769,0.207,2.019,0.552c5.146,1.418,18.442,5.159,19.782,6.326
						c1.666,1.451,3.888,5.507,3.888,5.507h-42.11L430.466,407.535z"/>
					
						<rect x="444.924" y="409.195" transform="matrix(0.441 -0.8975 0.8975 0.441 -117.7135 629.902)" style="fill:#05060C;" width="3.744" height="0.5"/>
					
						<rect x="447.358" y="409.913" transform="matrix(0.441 -0.8975 0.8975 0.441 -116.9967 632.4884)" style="fill:#05060C;" width="3.744" height="0.5"/>
					
						<rect x="449.812" y="410.604" transform="matrix(0.441 -0.8975 0.8975 0.441 -116.2456 635.0771)" style="fill:#05060C;" width="3.744" height="0.5"/>
					<rect x="430.097" y="417.411" style="fill:#05060C;" width="38.177" height="0.5"/>
					<path style="fill:#05060C;" d="M441.365,311.829l-2.596-1.159c-0.09-0.04-0.148-0.129-0.148-0.227
						c0-0.098,0.057-0.188,0.146-0.229l3.609-1.649l0.207,0.455l-3.105,1.419l2.09,0.934L441.365,311.829z"/>
					<rect x="430.007" y="397.582" style="fill:#05060C;" width="22.705" height="0.5"/>
					<path style="fill:#343B54;" d="M384.25,393.471l11.728,8.447c0,0,0.2,4.638,1.126,8.873c1.445,1.912,7.398,3.599,8.726,4.087
						c1.653,0.809,3.352,2.442,4.328,4.764l-16.387,0c-2.507,0-4.367-1.419-5.795-2.759l-13.404-11.708L384.25,393.471z"/>
					<path style="fill:#05060C;" d="M409.044,417.911h-12.649c-2.695,0-4.438-0.492-5.825-1.646l-14.751-12.603l0.324-0.381
						l14.749,12.602c1.288,1.07,2.935,1.528,5.503,1.528h12.649V417.911z"/>
					<path style="fill:#05060C;" d="M396.344,412.942l-0.451-0.217l0.724-1.499l-2.182,0.759l-0.164-0.473l2.751-0.957
						c0.096-0.03,0.203-0.005,0.269,0.07c0.067,0.075,0.083,0.184,0.039,0.274L396.344,412.942z"/>
					<polygon style="fill:#05060C;" points="392.842,403.649 392.799,403.151 395.955,402.885 395.998,403.383 					"/>
					<polygon style="fill:#05060C;" points="393.033,405.546 392.99,405.048 396.145,404.781 396.188,405.279 					"/>
					<polygon style="fill:#05060C;" points="393.222,407.339 393.179,406.841 396.333,406.574 396.376,407.072 					"/>
				</g>
				<g>
					<polygon style="fill:#FFFFFF;" points="456.938,158.297 459.194,164.357 455.714,160.793 					"/>
					<path style="fill:#ED9970;" d="M440.877,162.303l2.902-17.375l15.195,5.137c0,0-2.294,7.064-1.83,11.279
						c0.464,4.215,1.663,8.422,1.663,8.422L440.877,162.303z"/>
					<path style="fill:#FFFFFF;" d="M475.09,245.292l-0.154-4.872h-41.38c-0.345,1.65-0.589,3.269-0.786,4.872
						C446.891,248.262,460.998,248.421,475.09,245.292z"/>
					<path style="fill:#343B54;" d="M433.278,240.813h42.393c0.962-31.53-3.464-59.206-17.595-77.826l-0.876-1.354l-17.401-1.786
						c-7.34,1.754-12.936,6.797-12.383,15.903L433.278,240.813z"/>
					<polygon style="fill:#FFFFFF;" points="454.089,166.041 456.044,161.514 441.842,154.303 439.799,159.847 					"/>
				</g>
				<g>
					<g>
						<path style="fill:#ED9970;" d="M505.358,210.281c0,0,9.41-3.777,11.282-3.644c1.766,0.179,3.971,1.654,7.338,3.527
							c4.794,2.306,9.563,5.627,9.441,6.015c-0.4,1.014-1.542,1.196-2.423,0.806c-0.775,1.3-1.665,1.48-2.688,1.002l-4.523-2.06
							c1.136,0.917,2.177,1.862,3.083,2.845c-1.041,1.309-2.625,0.942-4.696-0.924c-1.316-0.243-2.473-0.629-3.468-1.158
							l-8.268,2.287c0,0-7.535,1.647-9.448-3.378C499.075,210.573,505.358,210.281,505.358,210.281z"/>
						<path style="fill:#05060C;" d="M523.645,216.134c-0.026-0.018-2.595-1.75-3.581-2.226c-0.784-0.377-4.432-0.241-5.77-0.157
							l-0.031-0.499c0.507-0.032,4.975-0.296,6.018,0.206c1.019,0.49,3.537,2.189,3.644,2.262L523.645,216.134z"/>
						<path style="fill:#05060C;" d="M530.86,217.194c-1.889-1.22-6.93-4.442-7.568-4.691c-0.635-0.248-4.633-0.814-6.12-1.011
							l0.066-0.496c0.221,0.029,5.415,0.72,6.235,1.041c0.816,0.318,7.379,4.557,7.658,4.737L530.86,217.194z"/>
						<path style="fill:#05060C;" d="M524.113,210.518c-2.288-0.638-4.7-0.832-4.725-0.833l0.039-0.498
							c0.024,0.001,2.483,0.198,4.82,0.85L524.113,210.518z"/>
					</g>
					<path style="fill:#FFFFFF;" d="M457.915,217.853c4.67,3.386,11.223,2.342,14.61-2.328c2.339-3.226,2.643-7.432,0.796-10.978
						l-0.08-0.153c-0.251-0.458-0.485-0.829-0.736-1.174l-20.892-33.841c-0.897-1.648-2.111-3.033-3.605-4.117
						c-5.548-4.023-13.335-2.783-17.358,2.766c-3.019,4.164-3.174,9.66-0.393,14l0.054,0.082c0.34,0.515,0.685,0.972,1.045,1.384
						l23.867,31.538l0.015-0.008l0.257,0.357C456.171,216.347,456.985,217.179,457.915,217.853z"/>
					<path style="fill:#FFFFFF;" d="M468.261,198.554l40.74,9.025l-1.614,13.684l-42.037-1.096
						C448.727,220.403,451.348,196.095,468.261,198.554z"/>
					<path style="fill:#05060C;" d="M468.737,204.262c-0.237-1.842-0.065-3.414,0.526-4.779c-1.116,0.569-2.05,1.376-2.782,2.404
						l-0.408-0.29c0.923-1.295,2.144-2.259,3.631-2.865c0.099-0.042,0.211-0.015,0.282,0.066c0.07,0.079,0.083,0.195,0.031,0.287
						c-0.789,1.413-1.045,3.085-0.784,5.114L468.737,204.262z"/>
					<path style="fill:#05060C;" d="M505.733,220.263c-0.236,0-0.461-0.088-0.635-0.251c-0.376-0.35-0.397-0.941-0.046-1.318
						c0.17-0.182,0.4-0.287,0.649-0.296c0.233-0.01,0.487,0.081,0.669,0.251c0.375,0.35,0.396,0.941,0.045,1.317l0,0
						c-0.17,0.182-0.4,0.287-0.648,0.296C505.755,220.263,505.745,220.263,505.733,220.263z M505.734,218.898
						c-0.005,0-0.01,0-0.015,0c-0.116,0.004-0.223,0.052-0.302,0.137c-0.162,0.175-0.152,0.449,0.021,0.611
						c0.085,0.079,0.174,0.115,0.311,0.116c0.115-0.004,0.222-0.053,0.301-0.137l0,0c0.162-0.175,0.153-0.449-0.021-0.611
						C505.949,218.939,505.844,218.898,505.734,218.898z"/>
					
						<rect x="496.09" y="213.55" transform="matrix(0.0625 -0.998 0.998 0.0625 258.6162 702.9119)" style="fill:#05060C;" width="14.726" height="0.501"/>
				</g>
			</g>
			<g>
				<path style="fill:#ED9970;" d="M449.566,150.787c0,0,6.36,6.632,12.914,2.784c0,0,3.395-2.534,3.043-9.983
					c0,0,1.819-2.263,1.853-3.01c0.034-0.747-2.338-5.737-2.338-5.737s-0.327-7.328-4.485-10.155
					c-4.159-2.827-16.496-0.965-16.496-0.965l-3.872,5.449l3.594,15.758L449.566,150.787z"/>
				<path style="fill:none;stroke:#05060C;stroke-width:0.5;stroke-miterlimit:10;" d="M462.489,145.941"/>
				<path style="fill:#343B54;" d="M465.523,143.588c-2.761-0.108-5.058,1.289-7.674,1.608c-2.617,0.319-4.705-11.778-4.705-11.778
					s15.517-7.314,13.282-13.001c-2.235-5.687-13.464-1.716-13.464-1.716c-9.803,0.273-18.538,4.602-18.351,14.428
					c0.187,9.825,8.963,14.068,8.963,14.068l1.242-4.572c0,0-4.329-5.949,0.427-8.822c4.641-2.246,5.918,3.192,6.255,5.673
					c0.113,2.286,0.272,6.017,0.256,8.561c0,5.074,6.096,8.681,11.904,7.053C469.466,153.462,465.523,143.588,465.523,143.588z"/>
				<path style="fill:#05060C;" d="M446.876,144.123c-1.071,0-2.046-0.746-2.511-1.279l0.377-0.329
					c0.064,0.073,1.582,1.78,3.083,0.824l0.27,0.422C447.69,144.019,447.276,144.123,446.876,144.123z"/>
			</g>
		</g>
		<g>
			<g>
				<g>
					<path style="fill:#ED9970;" d="M148.337,162.303l2.902-17.375l15.195,5.137c0,0-2.294,7.064-1.83,11.279
						c0.464,4.215,1.663,8.422,1.663,8.422L148.337,162.303z"/>
					<g>
						<path style="fill:#ED9970;" d="M157.026,150.787c0,0,6.36,6.632,12.914,2.784c0,0,3.766-3.329,3.38-8.303
							c0,0,1.819-2.263,1.853-3.01c0.034-0.747-2.338-5.737-2.338-5.737s-0.664-9.008-4.822-11.835
							c-4.159-2.827-16.496-0.965-16.496-0.965l-3.872,5.449l3.594,15.758L157.026,150.787z"/>
						<path style="fill:#343B54;" d="M151.034,147.197c0,0-8.776-4.242-8.963-14.068c-0.187-9.825,8.548-14.155,18.351-14.428
							c0,0,11.229-3.971,13.464,1.716c2.235,5.687-13.282,13.001-13.282,13.001s1.733,5.358-0.754,7.304
							c0,0-1.679-9.901-7.317-6.601c-4.481,2.923-0.257,8.503-0.257,8.503L151.034,147.197z"/>
						<path style="fill:#05060C;" d="M165.096,155.002c-0.204-0.021-5.02-0.558-7.623-4.052l0.4-0.299
							c2.471,3.315,7.227,3.849,7.274,3.854L165.096,155.002z"/>
						<path style="fill:none;stroke:#05060C;stroke-width:0.5;stroke-miterlimit:10;" d="M169.949,145.941"/>
						<path style="fill:#05060C;" d="M154.597,144.068c-1.07,0-2.045-0.746-2.51-1.279l0.377-0.329
							c0.063,0.073,1.587,1.78,3.083,0.823l0.27,0.422C155.412,143.963,154.998,144.068,154.597,144.068z"/>
					</g>
				</g>
				<g>
					<g>
						<polygon style="fill:#FFFFFF;" points="140.054,401.735 139.198,408.961 152.747,408.961 153.936,401.735 						"/>
						<polygon style="fill:#FFFFFF;" points="176.875,401.735 177.463,408.961 163.914,408.961 163.373,401.735 						"/>
						<path style="fill:#343B54;" d="M158.666,239.808h-11.22l13.407,161.927l17.917,0c5.649-58.255,7.717-113.168,3.191-161.927
							H158.666z"/>
						<path style="fill:#343B54;" d="M158.286,239.808h-15.118c-1.95,9.401-1.621,18.039,0.856,25.958l-6.085,135.969l18.541,0
							c12.797-58.063,21.679-112.388,25.102-161.927H158.286z"/>
						<path style="fill:#05060C;" d="M157.971,396.082l-0.488-0.105c11.905-54.898,19.439-102.487,23.032-145.489l0.498,0.042
							C177.419,293.553,169.881,341.163,157.971,396.082z"/>
						<path style="fill:#211210;" d="M162.648,407.535h15.969c0,0,20.135,5.427,21.801,6.877c1.666,1.451,3.888,5.507,3.888,5.507
							h-42.11L162.648,407.535z"/>
						<path style="fill:#343B54;" d="M137.926,407.535h15.969c0,0,0.769,0.207,2.019,0.552c5.146,1.418,18.442,5.159,19.782,6.326
							c1.666,1.451,3.888,5.507,3.888,5.507h-42.11L137.926,407.535z"/>
						
							<rect x="152.384" y="409.195" transform="matrix(0.441 -0.8975 0.8975 0.441 -281.2525 367.3408)" style="fill:#05060C;" width="3.744" height="0.5"/>
						
							<rect x="154.818" y="409.913" transform="matrix(0.4409 -0.8976 0.8976 0.4409 -280.5392 369.9657)" style="fill:#05060C;" width="3.744" height="0.501"/>
						
							<rect x="157.272" y="410.604" transform="matrix(0.4409 -0.8976 0.8976 0.4409 -279.788 372.5545)" style="fill:#05060C;" width="3.744" height="0.501"/>
						<rect x="137.557" y="417.411" style="fill:#05060C;" width="38.177" height="0.5"/>
						<polygon style="fill:#343B54;" points="158.215,396.125 137.475,396.125 137.701,401.735 157.05,401.735 						"/>
						<polygon style="fill:#343B54;" points="180.179,396.125 159.439,396.125 159.665,401.735 179.014,401.735 						"/>
						<rect x="138.189" y="395.875" style="fill:#05060C;" width="19.518" height="0.5"/>
						<rect x="160.381" y="395.779" style="fill:#05060C;" width="18.923" height="0.5"/>
					</g>
					<g>
						<g>
							<g>
								<path style="fill:#ED9970;" d="M211.892,181.058c0,0,3.877-10.023,5.797-10.565c1.92-0.543,7.75-1.356,8.432-1.135
									c0.356,0.115,2.044,0.7,3.575,1.232c0.656-0.058,1.222,0.212,1.635,0.569c0.618,0.215,1.033,0.36,1.033,0.36
									c1.714,0.681,1.357,3.134-1.615,2.263l-0.739,0.634c0,0,2.585,2.127,2.915,2.925c0.33,0.798-0.819,1.396-1.551,1.157
									c0.203,0.552-0.164,1.535-1.184,1.545c0.068,1.179-0.771,1.593-2.979,0.969c-0.734,0.008-1.221-0.13-1.89-0.314l-3.142,1.65
									c0,0-2.458,5.74-5.642,6.189C213.352,188.987,209.598,186.038,211.892,181.058z"/>
								<path style="fill:#05060C;" d="M220.747,174.775c-0.19,0-0.31-0.006-0.33-0.007l0.025-0.499
									c0.019,0,2.178,0.099,3.631-0.638c0.582-0.295,1.299-0.788,2.058-1.311c1.23-0.846,2.502-1.722,3.505-1.974l0.121,0.485
									c-0.915,0.23-2.148,1.08-3.342,1.901c-0.773,0.532-1.504,1.035-2.115,1.345
									C223.066,174.702,221.437,174.775,220.747,174.775z"/>
								<path style="fill:#05060C;" d="M230.914,173.969l-0.33-0.375c0.55-0.486,0.863-1.008,0.884-1.471
									c0.012-0.292-0.095-0.559-0.317-0.793l0.361-0.345c0.316,0.331,0.474,0.731,0.455,1.159
									C231.941,172.744,231.567,173.392,230.914,173.969z"/>
								<path style="fill:#05060C;" d="M219.555,183.935l-0.352-0.357c0.029-0.029,2.935-2.904,4.075-5.207
									c0.861-1.565,2.827-2.427,4.563-3.187c0.751-0.329,1.46-0.64,2.04-0.984l0.256,0.43c-0.606,0.359-1.33,0.676-2.096,1.012
									c-1.662,0.729-3.546,1.554-4.32,2.96C222.548,180.972,219.676,183.815,219.555,183.935z"/>
								<path style="fill:#05060C;" d="M231.273,178.727c-1.096-0.489-2.009-1.017-2.791-1.614
									c-0.843-0.183-1.552-0.444-2.165-0.798l0.25-0.433c0.581,0.335,1.259,0.582,2.074,0.754l0.101,0.047
									c0.761,0.587,1.655,1.105,2.734,1.587L231.273,178.727z"/>
								<path style="fill:#05060C;" d="M230.102,180.277c-0.863-0.325-1.589-0.743-2.157-1.243
									c-0.714-0.133-1.404-0.383-2.052-0.743c-0.708,0.175-1.479,0.268-2.291,0.277l-0.006-0.5
									c0.811-0.008,1.573-0.104,2.269-0.286l0.1-0.026l0.088,0.051c0.644,0.37,1.335,0.622,2.05,0.747l0.071,0.012l0.054,0.048
									c0.529,0.478,1.219,0.88,2.051,1.194L230.102,180.277z"/>
								<path style="fill:#05060C;" d="M222.849,174.468l-0.443-0.23c0.686-1.328-0.296-2.191-0.338-2.227l0.324-0.38
									C222.406,171.643,223.716,172.792,222.849,174.468z"/>
								<path style="fill:#05060C;" d="M229.426,173.855c-0.354,0-0.718-0.289-0.952-0.623c-0.359-0.51-0.407-1.061-0.122-1.404
									l0.385,0.319c-0.154,0.186-0.032,0.543,0.146,0.797c0.207,0.293,0.462,0.445,0.582,0.404l0.17,0.47
									C229.567,173.844,229.497,173.855,229.426,173.855z"/>
							</g>
							<g>
								<path style="fill:#FFFFFF;" d="M175.72,216.54c4.67,3.386,11.223,2.342,14.61-2.328c2.339-3.226,2.643-7.432,0.796-10.978
									l-0.08-0.153c-0.251-0.458-0.485-0.829-0.736-1.174l-20.892-33.841c-0.897-1.648-2.111-3.033-3.605-4.117
									c-5.548-4.023-13.335-2.783-17.358,2.766c-3.019,4.164-3.174,9.66-0.393,14l0.054,0.082c0.34,0.515,0.685,0.972,1.045,1.384
									l23.867,31.538l0.015-0.008l0.257,0.357C173.976,215.034,174.79,215.865,175.72,216.54z"/>
								<path style="fill:#FFFFFF;" d="M176.959,197.225l35.95-21.184l8.152,11.108l-31.491,27.868
									C177.574,226.526,162.913,206.961,176.959,197.225z"/>
								<path style="fill:#05060C;" d="M184.691,198.109c-0.614-1.753-0.771-3.326-0.477-4.785c-0.974,0.788-1.72,1.77-2.223,2.929
									l-0.459-0.199c0.634-1.458,1.628-2.655,2.956-3.556c0.089-0.06,0.204-0.056,0.289,0.006
									c0.086,0.063,0.122,0.173,0.091,0.275c-0.478,1.547-0.382,3.236,0.295,5.165L184.691,198.109z"/>
							</g>
							<path style="fill:#05060C;" d="M218.535,187.795c-0.515,0-0.933-0.418-0.933-0.933c0-0.514,0.418-0.932,0.933-0.932
								c0.515,0,0.933,0.418,0.933,0.932C219.467,187.376,219.049,187.795,218.535,187.795z M218.535,186.43
								c-0.238,0-0.433,0.194-0.433,0.432c0,0.239,0.194,0.433,0.433,0.433s0.433-0.194,0.433-0.433
								C218.967,186.624,218.773,186.43,218.535,186.43z"/>
							<polygon style="fill:#05060C;" points="217.582,190.216 208.22,178.848 208.607,178.531 217.968,189.898 							"/>
						</g>
						<path style="fill:#ED9970;" d="M162.736,246.015c0,0,1.653,2.413,2.936,2.936c1.284,0.523,6.102,1.846,7.947,4.598
							c-2.933,3.169-8.182,6.103-13.859,7.391c-2.447-2.737-3.99-5.704-4.264-9.053
							C153.585,248.324,158.053,246.791,162.736,246.015z"/>
						<path style="fill:#05060C;" d="M157.419,261.686l-0.074-0.494c7.702-1.168,13.357-4.11,16.81-8.745l0.4,0.299
							C171.023,257.49,165.257,260.498,157.419,261.686z"/>
						<path style="fill:#FFFFFF;" d="M166.214,160.235l-18.006-6.573l-2.853,6.085c-6.802,1.956-10.89,6.115-12.408,12.361
							l-9.128,31.377c-1.741,5.186-3.185,12.076,0.757,16.685l29.336,33.044l9.984-6.656l-3.518-6.751h21.204
							c0.998-31.187-1.854-58.571-16.045-76.97L166.214,160.235z"/>
						<polygon style="fill:#05060C;" points="160.162,239.935 143.264,211.199 158.442,180.366 158.891,180.586 143.833,211.177 
							160.593,239.681 						"/>
						<path style="fill:#05060C;" d="M135.294,212.743l-0.225-0.447c2.655-1.329,5.442-1.773,8.513-1.355l-0.066,0.495
							C140.544,211.035,137.856,211.46,135.294,212.743z"/>
						<polygon style="fill:#05060C;" points="164.047,168.169 163.796,168.059 145.255,159.977 145.455,159.519 163.745,167.491 
							165.299,162.76 165.774,162.916 						"/>
						<path style="fill:#05060C;" d="M181.87,239.821l-0.5-0.025c1.765-34.761-3.48-59.909-16.034-76.878l0.402-0.297
							C178.363,179.686,183.64,204.939,181.87,239.821z"/>
						<polygon style="fill:#05060C;" points="161.864,185.895 161.364,185.895 161.364,183.282 171.471,182.722 171.634,185.233 
							171.136,185.266 171.004,183.248 161.864,183.755 						"/>
						<polygon style="fill:#05060C;" points="151.651,250.714 151.368,250.302 161.997,242.98 162.28,243.392 						"/>
						<path style="fill:#05060C;" d="M154.304,251.648c-0.515,0-0.933-0.418-0.933-0.932c0-0.514,0.418-0.932,0.933-0.932
							c0.514,0,0.932,0.418,0.932,0.932C155.236,251.23,154.818,251.648,154.304,251.648z M154.304,250.283
							c-0.238,0-0.433,0.194-0.433,0.432c0,0.238,0.194,0.432,0.433,0.432c0.238,0,0.432-0.194,0.432-0.432
							C154.736,250.477,154.542,250.283,154.304,250.283z"/>
					</g>
				</g>
			</g>
			<g>
				<path style="fill:#211210;" d="M246.749,371.508h-54.062c-1.565,0-2.845,1.28-2.845,2.846l-2.265,40.659
					c0,2.698,2.107,4.906,4.681,4.906h51.201c2.575,0,4.681-2.208,4.681-4.906V392.23h0.009l1.446-0.379v-17.497
					C249.594,372.789,248.314,371.508,246.749,371.508z"/>
				<path style="fill:#343B54;" d="M257.001,391.851v-17.497c0-1.565-1.28-2.845-2.845-2.845h-57.783
					c-1.565,0-2.845,1.28-2.845,2.845v17.426l1.455,0.45h60.572L257.001,391.851z"/>
				<path style="fill:#343B54;" d="M194.983,388.575v26.438c0,2.698,2.107,4.906,4.681,4.906h51.201
					c2.574,0,4.681-2.208,4.681-4.906v-26.438H194.983z"/>
				<path style="fill:#05060C;" d="M235.619,371.307h-1.684c-0.549,0-1.064-0.271-1.376-0.724l-1.533-2.229
					c-0.218-0.317-0.578-0.507-0.964-0.507h-9.576c-0.386,0-0.746,0.189-0.964,0.507l-1.533,2.229
					c-0.311,0.453-0.826,0.724-1.376,0.724h-1.684v-0.5h1.684c0.386,0,0.746-0.189,0.964-0.507l1.533-2.229
					c0.312-0.453,0.826-0.724,1.376-0.724h9.576c0.55,0,1.064,0.271,1.376,0.724l1.533,2.229c0.219,0.317,0.579,0.507,0.964,0.507
					h1.684V371.307z"/>
				<polygon style="fill:#05060C;" points="225.274,400.077 222.05,400.068 194.916,392.472 195.05,391.989 222.152,399.577 
					225.274,399.577 				"/>
				<polygon style="fill:#05060C;" points="228.455,400.077 225.264,400.077 225.264,399.577 228.386,399.577 255.488,391.989 
					255.623,392.472 				"/>
				<path style="fill:#C0C9D6;" d="M227.083,405.231h-3.394c-0.757,0-1.377-0.62-1.377-1.377v-6.755
					c0-0.757,0.619-1.377,1.377-1.377h3.394c0.757,0,1.377,0.62,1.377,1.377v6.755C228.46,404.611,227.84,405.231,227.083,405.231z"
					/>
				<rect x="221.057" y="401.897" style="fill:#05060C;" width="8.414" height="0.5"/>
			</g>
		</g>
		<rect x="25.265" y="419.669" style="fill:#05060C;" width="699.735" height="0.5"/>
		<g>
			<g>
				<rect x="298.357" y="149.124" style="fill:#ED9970;" width="13.964" height="24.391"/>
				<g>
					<path style="fill:#ED9970;" d="M294.73,136.611c0,0-4.171,14.689-3.718,18.679c0.453,3.99,1.814,6.71,9.43,6.075
						c7.617-0.635,11.425-5.258,13.964-12.331C316.945,141.961,301.44,125.186,294.73,136.611z"/>
					<path style="fill:#05060C;" d="M298.363,161.707l-0.012-0.5c0.061-0.001,6.059-0.162,8.544-2.386l0.334,0.373
						C304.605,161.54,298.616,161.701,298.363,161.707z"/>
					<path style="fill:#343B54;" d="M295.919,129.709c0.509-0.58,1.09-1.109,1.776-1.429c0.729-0.34,1.539-0.428,2.334-0.486
						c1.379-0.1,2.871-0.087,3.998,0.756c0.45,0.336,0.816,0.789,1.284,1.096c1.396,0.915,3.207,0.304,4.839,0.509
						c1.137,0.143,2.221,0.712,3.016,1.582c0.901,0.988,1.412,2.313,2.304,3.309c0.973,1.086,2.374,1.752,3.098,3.036
						c0.624,1.106,0.63,2.482,0.453,3.757s-0.518,2.531-0.523,3.819c-0.005,1.291,0.327,2.558,0.411,3.846
						c0.084,1.288-0.136,2.703-1.032,3.583c-0.623,0.612-1.479,0.875-2.198,1.355c-0.672,0.449-1.225,1.095-1.58,1.846
						c-0.136,0.287-0.254,0.605-0.5,0.793c-0.188,0.143-0.426,0.191-0.658,0.202c-1.27,0.058-2.384-0.88-3.204-1.905
						c-0.392-0.491-0.755-1.025-0.94-1.636c-0.484-1.599,0.322-3.275,1.015-4.785c0.693-1.511,1.279-3.371,0.43-4.79
						c-0.751-1.257-2.592-1.583-3.692-0.654c-0.955,0.807-1.221,2.207-1.326,3.493c-0.767-0.365-1.314-1.198-1.369-2.083
						c-0.061-0.984,0.43-1.897,0.828-2.789c0.398-0.892,0.714-1.949,0.313-2.84c-0.163-0.362-0.431-0.659-0.711-0.932
						c-7.811-3.36-9.433,0.429-9.72,0.535c-0.546,0.201-0.613,0.807-0.727,1.292c-1.147-0.463-0.587-4.425-0.389-5.394
						C293.836,132.911,294.676,131.125,295.919,129.709z"/>
					<path style="fill:#FFFFFF;" d="M299.658,142.187c-0.228-0.326-0.52-0.524-0.845-0.572c-0.826-0.124-1.744,0.773-2.45,2.225
						c-0.923-0.513-1.715-0.645-2.36-0.392c-0.047-0.928-0.24-1.705-0.58-2.192c-0.227-0.326-0.52-0.524-0.845-0.573
						c-1.24-0.187-2.72,1.933-3.325,4.831c-0.438,2.088-0.304,4.036,0.34,4.961c0.227,0.326,0.519,0.524,0.845,0.573
						c0.052,0.008,0.105,0.012,0.157,0.012c1.22,0,2.586-2.065,3.169-4.842c0.161-0.771,0.243-1.521,0.252-2.209
						c0.538-0.31,1.239-0.212,2.135,0.293c-0.269,0.64-0.5,1.36-0.664,2.144c-0.438,2.088-0.304,4.036,0.34,4.961
						c0.227,0.326,0.519,0.525,0.845,0.573c0.052,0.008,0.105,0.012,0.157,0.012c1.22,0,2.587-2.065,3.169-4.842
						C300.434,145.06,300.301,143.112,299.658,142.187z M293.274,146.114c-0.562,2.681-1.834,4.445-2.677,4.445
						c-0.029,0-0.058-0.002-0.085-0.006c-0.189-0.028-0.36-0.151-0.509-0.364c-0.561-0.805-0.665-2.643-0.26-4.573
						c0.56-2.681,1.832-4.445,2.676-4.445c0.028,0,0.058,0.002,0.085,0.006c0.19,0.028,0.36,0.151,0.509,0.364
						C293.574,142.346,293.678,144.184,293.274,146.114z M299.507,147.046c-0.581,2.774-1.942,4.548-2.762,4.439
						c-0.189-0.028-0.36-0.151-0.509-0.364c-0.561-0.805-0.665-2.643-0.26-4.573c0.56-2.681,1.833-4.445,2.677-4.445
						c0.029,0,0.058,0.002,0.085,0.006c0.19,0.028,0.36,0.151,0.508,0.364C299.807,143.277,299.912,145.115,299.507,147.046z"/>
				</g>
			</g>
			<g>
				<rect x="292.331" y="396.35" style="fill:#FFFFFF;" width="24.329" height="10.654"/>
				<g>
					<path style="fill:#343B54;" d="M306.203,406.448H291.7c0,0-0.698,0.221-1.834,0.588c-4.673,1.51-16.748,5.496-17.965,6.74
						c-1.513,1.546-3.531,5.868-3.531,5.868h38.242L306.203,406.448z"/>
					<polygon style="fill:#05060C;" points="291.891,410.371 290.394,406.79 290.855,406.597 292.352,410.178 					"/>
					
						<rect x="288.912" y="407.308" transform="matrix(0.9225 -0.3859 0.3859 0.9225 -135.5347 143.294)" style="fill:#05060C;" width="0.5" height="3.882"/>
					<polygon style="fill:#05060C;" points="287.452,411.872 285.955,408.291 286.416,408.098 287.913,411.679 					"/>
					<rect x="271.868" y="416.986" style="fill:#05060C;" width="34.67" height="0.5"/>
				</g>
				<g>
					<path style="fill:#343B54;" d="M306.251,406.448h10.196c0,0,0.918,0,1.833,0.588c3.429,3.239,11.601,5.496,12.818,6.74
						c1.513,1.546,2.375,5.868,2.375,5.868h-27.633L306.251,406.448z"/>
					
						<rect x="315.713" y="408.283" transform="matrix(0.4458 -0.8951 0.8951 0.4458 -189.7728 510.5591)" style="fill:#05060C;" width="3.416" height="0.5"/>
					
						<rect x="317.714" y="409.367" transform="matrix(0.4767 -0.8791 0.8791 0.4767 -193.0348 494.9846)" style="fill:#05060C;" width="2.984" height="0.5"/>
					<polygon style="fill:#05060C;" points="320.685,411.893 320.244,411.658 321.455,409.366 321.896,409.601 					"/>
					<rect x="305.916" y="416.986" style="fill:#05060C;" width="25.217" height="0.5"/>
				</g>
				<rect x="305.59" y="400.634" style="fill:#05060C;" width="0.5" height="19.009"/>
				<polygon style="fill:#343B54;" points="280.09,240.866 331.593,240.866 324.657,400.634 286.709,400.634 				"/>
				<polygon style="fill:#05060C;" points="305.591,400.635 305.048,256.058 290.02,249.49 290.221,249.032 305.546,255.73 
					305.547,255.893 306.091,400.633 				"/>
				<path style="fill:#05060C;" d="M324.367,250.183c-7.839-0.55-9.996-8.177-10.017-8.254l0.483-0.131
					c0.02,0.073,2.091,7.361,9.569,7.886L324.367,250.183z"/>
			</g>
			<g>
				<g>
					<g>
						<path style="fill:#ED9970;" d="M242.396,208.469c0,0-1.107-3.129-3.472-4.197c-2.366-1.068-8.738-4.579-8.738-4.579
							s-1.183,1.755,0.725,3.167c1.908,1.412,3.472,2.366,3.472,2.366l-3.205,1.488c0.193-1.624,0.027-3.002-1.355-3.548
							l-1.24,3.663l-1.831-0.115c1.176-2.978,1.24-5.068-0.305-5.876l-2.557,4.922c-3.653-3.238-5.625-3.635-6.677-2.48l6.715,7.441
							c0.879,0.896,1.998,1.49,3.434,1.679c0,0,0.42,2.251,8.013,2.251C245.372,214.65,242.396,208.469,242.396,208.469z"/>
						<path style="fill:#05060C;" d="M224.203,209.631c-1.666-1.557-0.55-3.955-0.538-3.979l0.451,0.215
							c-0.04,0.085-0.969,2.093,0.429,3.398L224.203,209.631z"/>
						
							<rect x="227.006" y="207.685" transform="matrix(0.3397 -0.9405 0.9405 0.3397 -44.8987 351.9166)" style="fill:#05060C;" width="2.354" height="0.5"/>
						<path style="fill:#05060C;" d="M226.973,208.355c-0.678-0.572-0.475-1.644-0.466-1.689l0.49,0.096
							c-0.001,0.008-0.154,0.831,0.298,1.211L226.973,208.355z"/>
						<path style="fill:#05060C;" d="M231.494,210.243c-0.498,0-0.872-0.06-0.902-0.064l-0.249-0.041l0.59-3.466l0.492,0.084
							l-0.503,2.959c0.432,0.041,1.328,0.077,2.002-0.216c0.111-0.049,0.246-0.114,0.403-0.189c1.251-0.603,3.855-1.858,6.703-0.782
							l-0.176,0.468c-2.65-1.001-5.122,0.192-6.311,0.765c-0.163,0.079-0.305,0.146-0.421,0.197
							C232.602,210.185,231.987,210.243,231.494,210.243z"/>
					</g>
					<g>
						<path style="fill:#FFFFFF;" d="M286.802,228.823c-3.204,4.556-9.517,5.656-14.073,2.452c-3.147-2.213-4.743-5.959-4.167-9.777
							l0.025-0.165c0.086-0.497,0.183-0.909,0.304-1.303l8.475-37.455c0.303-1.786,0.977-3.432,2.002-4.89
							c3.807-5.413,11.307-6.721,16.72-2.914c4.063,2.857,5.926,7.828,4.747,12.663l-0.023,0.092
							c-0.149,0.577-0.321,1.102-0.521,1.592l-11.914,36.284l-0.016-0.002l-0.123,0.406
							C287.923,226.901,287.44,227.915,286.802,228.823z"/>
						<path style="fill:#FFFFFF;" d="M279.617,211.57l-39.473-8.081l-3.964,12.7l37.495,15.583
							C288.239,238.525,295.497,216.06,279.617,211.57z"/>
						<path style="fill:#05060C;" d="M272.84,214.801l-0.5-0.003c0.013-1.972-0.428-3.543-1.348-4.805
							c-0.063-0.086-0.064-0.202-0.004-0.289c0.061-0.087,0.167-0.128,0.272-0.1c1.498,0.408,2.782,1.189,3.819,2.324l-0.369,0.337
							c-0.816-0.893-1.797-1.553-2.923-1.968C272.507,211.536,272.852,213.017,272.84,214.801z"/>
						
							<rect x="234.913" y="210.762" transform="matrix(0.2856 -0.9583 0.9583 0.2856 -29.3759 382.6154)" style="fill:#05060C;" width="14.068" height="0.499"/>
						<path style="fill:#05060C;" d="M238.57,215.648c-0.475,0-0.861-0.386-0.861-0.861c0-0.475,0.387-0.861,0.861-0.861
							c0.475,0,0.861,0.386,0.861,0.861C239.431,215.262,239.044,215.648,238.57,215.648z M238.57,214.426
							c-0.199,0-0.361,0.162-0.361,0.361c0,0.199,0.162,0.361,0.361,0.361c0.199,0,0.361-0.162,0.361-0.361
							C238.931,214.588,238.769,214.426,238.57,214.426z"/>
					</g>
				</g>
				<path style="fill:#FFFFFF;" d="M324.181,172.585c-4.926-1.32-11.856-2.536-11.856-2.536c-7.262,4.063-11.552,3.494-13.964,0
					c0,0-5.911,1.216-10.836,2.536c-5.437,1-9.522,4.038-9.52,10.906l1.828,58.372h25.522h0.997h25.522l1.828-58.372
					C333.703,176.623,329.618,173.586,324.181,172.585z"/>
				<g>
					<g>
						<path style="fill:#89627A;" d="M313.328,274.904l-18.645,28.79c-0.336,0.519-1.03,0.668-1.549,0.331l-41.284-26.737
							c-0.519-0.336-0.668-1.03-0.331-1.549l18.645-28.79c0.336-0.519,1.03-0.668,1.549-0.331l41.284,26.737
							C313.516,273.691,313.664,274.384,313.328,274.904z"/>
					</g>
					<g>
						<g>
							<path style="fill:#ED9970;" d="M301.712,252.886c3.166,3.268-0.244,7.944-0.56,8.58c-1.631,3.281-8.69,8.41-8.69,8.41
								c-1.719,1.442-2.912,0.074-2.485-0.437c0.228-0.229-0.927,0.805-1.17,1.011c-2.213,1.732-3.135-0.295-2.452-1.198
								c-1.481,1.626-3.323,0.106-2.447-1.015c-1.185,1.044-2.812-0.42-1.354-2.255c0.723-1.087,6.983-7.833,6.983-7.833
								s-2.809-1.806-3.414-2.198c1.793-2.143,4.48-1.188,6.665-2.945C294.972,251.249,298.546,249.618,301.712,252.886z"/>
							<polygon style="fill:#05060C;" points="290.289,269.602 289.937,269.246 294.193,265.047 294.544,265.402 							"/>
							
								<rect x="285.18" y="266.022" transform="matrix(0.711 -0.7032 0.7032 0.711 -103.5945 280.4809)" style="fill:#05060C;" width="8.503" height="0.5"/>
							
								<rect x="282.478" y="264.558" transform="matrix(0.6954 -0.7186 0.7186 0.6954 -102.8206 287.032)" style="fill:#05060C;" width="9.413" height="0.5"/>
						</g>
						<path style="fill:#FFFFFF;" d="M335.903,227.027c-1.419,5.386-6.955,8.613-12.342,7.194c-3.72-0.98-6.52-3.938-7.307-7.717
							l-0.034-0.163c-0.093-0.496-0.145-0.916-0.168-1.327l-5.08-38.065c-0.337-1.78-0.278-3.557,0.177-5.281
							c1.686-6.399,8.264-10.234,14.663-8.547c4.803,1.266,8.279,5.278,8.854,10.222l0.01,0.094
							c0.061,0.593,0.083,1.145,0.065,1.674l1.448,38.163l-0.016,0.003l0.026,0.424
							C336.285,224.836,336.185,225.955,335.903,227.027z"/>
						<path style="fill:#FFFFFF;" d="M316.086,219.13l-23.341,32.842l10.016,8.758l29.405-28.002
							C344.226,222.134,326.61,206.418,316.086,219.13z"/>
						<path style="fill:#05060C;" d="M319.231,221.405c-0.015-0.011-1.479-1.054-3.808-1.054c-0.009,0-0.018,0-0.026,0h-0.001
							c-0.107,0-0.203-0.069-0.237-0.17c-0.034-0.103,0.001-0.215,0.087-0.28c1.752-1.313,3.71-0.933,3.793-0.916l-0.1,0.49
							c-0.016-0.003-1.353-0.258-2.72,0.414c2.026,0.194,3.249,1.07,3.307,1.112L319.231,221.405z"/>
						<path style="fill:#05060C;" d="M302.696,259.185c-0.027,0-0.054-0.002-0.08-0.004c-0.242-0.021-0.461-0.134-0.617-0.318
							c-0.157-0.186-0.232-0.422-0.211-0.665c0.044-0.5,0.485-0.866,0.983-0.827c0.241,0.021,0.46,0.133,0.616,0.318
							c0.157,0.186,0.232,0.422,0.211,0.665c-0.021,0.241-0.134,0.46-0.318,0.616C303.114,259.109,302.909,259.185,302.696,259.185z
							 M302.693,257.867c-0.21,0-0.389,0.16-0.407,0.373c-0.01,0.109,0.024,0.216,0.095,0.299c0.07,0.084,0.169,0.135,0.277,0.143
							h0.001c0.1,0.009,0.214-0.024,0.298-0.095c0.084-0.07,0.135-0.168,0.143-0.276c0.01-0.11-0.024-0.217-0.095-0.301
							c-0.07-0.083-0.169-0.134-0.276-0.143C302.716,257.867,302.705,257.867,302.693,257.867z"/>
						
							<rect x="300.496" y="245.727" transform="matrix(0.6992 -0.7149 0.7149 0.6992 -90.2968 291.0448)" style="fill:#05060C;" width="0.5" height="14.219"/>
						<polygon style="fill:#05060C;" points="322.745,242.044 322.399,241.682 331.992,232.547 332.337,232.91 						"/>
					</g>
				</g>
				<path style="fill:#05060C;" d="M300.193,241.924l-0.408-0.29l14.118-19.865l0.002,0.001c0.11-0.208,0.428-0.642,1.231-1.736
					l-4.412-33.052c-0.02-0.101-0.039-0.214-0.059-0.329l0.494-0.081c0.018,0.11,0.037,0.22,0.058,0.33l4.44,33.266l-0.06,0.081
					c-0.487,0.664-1.024,1.408-1.206,1.676l0.006,0.011l-0.086,0.123L300.193,241.924z"/>
				
					<rect x="278.691" y="188.071" transform="matrix(0.9994 -0.0352 0.0352 0.9994 -7.2303 9.9371)" style="fill:#05060C;" width="0.5" height="44.972"/>
			</g>
		</g>
	</g>
</g>
</svg>
